<?xml version="1.0" encoding="UTF-8"?>
<!DOCTYPE svg PUBLIC "-//W3C//DTD SVG 1.1//EN" "http://www.w3.org/Graphics/SVG/1.1/DTD/svg11.dtd">
<!-- Creator: CorelDRAW -->
<svg xmlns="http://www.w3.org/2000/svg" xml:space="preserve" width="30px" height="30px" style="shape-rendering:geometricPrecision; text-rendering:geometricPrecision; image-rendering:optimizeQuality; fill-rule:evenodd; clip-rule:evenodd"
viewBox="0 0 30 30"
 xmlns:xlink="http://www.w3.org/1999/xlink">
 <defs>
  <style type="text/css">
   <![CDATA[
    .fil0 {fill:black}
   ]]>
  </style>
 </defs>
 <g id="Слой_x0020_1">
  <metadata id="CorelCorpID_0Corel-Layer"/>
  <path class="fil0" d="M15 14.4102c-1.13819,0 -2.05866,-0.922047 -2.05866,-2.05866l0 -10.2929c0,-1.13661 0.920472,-2.05866 2.05866,-2.05866 1.13819,0 2.05866,0.922047 2.05866,2.05866l0 10.2929c0,1.13661 -0.920472,2.05866 -2.05866,2.05866zm0 15.5898c-3.57362,0 -6.93307,-1.39173 -9.46102,-3.91732 -2.52559,-2.52795 -3.91969,-5.8878 -3.91969,-9.46339 0,-3.57598 1.39331,-6.93583 3.91969,-9.46339 0.805118,-0.805512 2.1063,-0.805512 2.91063,0 0.804331,0.805118 0.805118,2.10591 0,2.91063 -1.75,1.75197 -2.71299,4.07756 -2.71299,6.55276 0,2.4748 0.962992,4.80276 2.71299,6.55236 1.75,1.75 4.07402,2.71181 6.55039,2.71181 2.47638,0 4.80039,-0.963386 6.55039,-2.71181 1.75236,-1.74961 2.71299,-4.07598 2.71299,-6.55236 0,-2.47677 -0.962992,-4.80315 -2.71299,-6.55276 -0.805118,-0.805512 -0.805118,-2.1063 0,-2.91063 0.805118,-0.804724 2.1063,-0.805512 2.91063,0 2.52559,2.52992 3.91969,5.88976 3.91969,9.46339 0,3.57323 -1.39331,6.93543 -3.91969,9.46339 -2.52795,2.52559 -5.8874,3.91732 -9.46102,3.91732z"/>
 </g>
</svg>
